<svg width="88" height="31" xmlns="http://www.w3.org/2000/svg">
  <defs>
    <linearGradient id="bg" gradientTransform="rotate(45)">
      <stop id="stop1" stop-color="#040404FF" offset="0%" />
      <stop id="stop2" stop-color="#270751FF" offset="100%" />
    </linearGradient>
    <linearGradient id="trans">
      <stop id="stop1" stop-color="#5BCEFAFF" offset="0%" />
      <stop id="stop2" stop-color="#F5A9B8FF" offset="50%" />
      <stop id="stop3" stop-color="#FFFFFFFF" offset="100%" />
    </linearGradient>
    <linearGradient id="nb" gradientTransform="rotate(45)">
      <stop id="stop1" stop-color="#FCF434FF" offset="0%" />
      <stop id="stop2" stop-color="#FFFFFFFF" offset="33%" />
      <stop id="stop3" stop-color="#9C59D1FF" offset="100%" />
    </linearGradient>
  </defs>
  <rect width="88" height="31" fill="url(#bg)" stroke="url(#nb)" />

  <!-- L -->
  <polyline points="10 10 10 20 15 20" stroke="white" stroke-width="1" stroke-linecap="butt"
    fill="none" stroke-linejoin="bevel" />

  <!-- I -->
  <line x1="20" x2="20" y1="10" y2="21" stroke="white" stroke-width="1" stroke-linecap="butt" />

  <!-- A -->
  <polyline points="35 21 30 10 25 21" stroke="white" stroke-width="1" stroke-linecap="butt"
    fill="none" stroke-linejoin="bevel" />
  <line x1="33" x2="27" y1="17" y2="17" stroke="white" stroke-width="1" stroke-linecap="butt" />

  <!-- <3 -->
  <path fill="none" fill-rule="evenodd" clip-rule="evenodd"
    d="M12 6.00019C10.2006 3.90317 7.19377 3.2551 4.93923 5.17534C2.68468 7.09558 2.36727 10.3061 4.13778 12.5772C5.60984 14.4654 10.0648 18.4479 11.5249 19.7369C11.6882 19.8811 11.7699 19.9532 11.8652 19.9815C11.9483 20.0062 12.0393 20.0062 12.1225 19.9815C12.2178 19.9532 12.2994 19.8811 12.4628 19.7369C13.9229 18.4479 18.3778 14.4654 19.8499 12.5772C21.6204 10.3061 21.3417 7.07538 19.0484 5.17534C16.7551 3.2753 13.7994 3.90317 12 6.00019Z"
    stroke="white" stroke-width="1" stroke-linecap="round" stroke-linejoin="bevel"
    transform="translate(37 7) scale(0.7)" />

  <!-- sewing needle -->
  <path
    d="M482.19,430.44c-26.096,13.286-57.55,8.288-78.274-12.435c-12.735-12.735-19.749-29.668-19.749-47.679
			s7.014-34.944,19.749-47.68l11.92-11.92c38.118-38.118,51.665-91.639,40.656-140.712c16.229-13.253,27.199-22.501,30.862-26.166
			c32.862-32.864,32.862-86.336,0-119.199c-32.863-32.863-86.336-32.863-119.199,0c-3.665,3.665-12.913,14.633-26.165,30.861
			c-49.074-11.008-102.595,2.54-140.713,40.658l-11.919,11.919c-26.292,26.288-69.069,26.291-95.361,0
			C73.27,87.36,68.273,55.901,81.564,29.809c4.226-8.296,0.925-18.446-7.371-22.672c-8.294-4.228-18.446-0.926-22.672,7.371
			c-19.938,39.146-12.449,86.334,18.636,117.419c39.438,39.438,103.605,39.436,143.039,0l11.919-11.919
			c25.266-25.263,59.231-36.65,92.342-34.167C218.792,208.68,14.445,470.818,3.562,484.78c-5.23,6.71-4.64,16.267,1.377,22.282
			c6.019,6.021,15.578,6.602,22.282,1.377c13.964-10.882,276.103-215.232,398.944-313.896c2.484,33.111-8.903,67.077-34.169,92.343
			l-11.92,11.92c-19.104,19.104-29.624,44.503-29.624,71.52c0,27.016,10.521,52.416,29.625,71.519
			c31.194,31.196,78.406,38.504,117.412,18.639c8.297-4.224,11.597-14.375,7.372-22.671
			C500.636,429.515,490.484,426.217,482.19,430.44z M114.611,397.391c81.395-103.996,183.893-234.409,239.142-302.939
			c8.929,3.688,17.492,8.52,25.467,14.491l-11.065,11.065c-6.583,6.582-6.583,17.256,0,23.84c6.581,6.583,17.255,6.584,23.84,0
			l11.065-11.065c5.971,7.975,10.802,16.538,14.491,25.467C349.02,213.497,218.608,315.995,114.611,397.391z M415.835,72.327
			l-12.586,12.586c-8.641-6.914-17.864-12.754-27.495-17.501c8.141-9.868,13.766-16.449,16.24-18.924
			c9.859-9.858,22.81-14.788,35.76-14.788s25.901,4.93,35.76,14.788c19.719,19.719,19.719,51.801,0.001,71.519
			c-2.475,2.475-9.056,8.099-18.925,16.241c-4.748-9.631-10.587-18.854-17.501-27.495l12.586-12.586
			c6.583-6.582,6.583-17.256,0-23.84C433.093,65.744,422.419,65.744,415.835,72.327z"
    transform="translate(54 9) scale(0.025)" fill="white" />

  <!-- sparkles -->
  <path
    d="M19 3V7M17 5H21M19 17V21M17 19H21M10 5L8.53001 8.72721C8.3421 9.20367 8.24814 9.4419 8.10427 9.64278C7.97675 9.82084 7.82084 9.97675 7.64278 10.1043C7.4419 10.2481 7.20367 10.3421 6.72721 10.53L3 12L6.72721 13.47C7.20367 13.6579 7.4419 13.7519 7.64278 13.8957C7.82084 14.0233 7.97675 14.1792 8.10427 14.3572C8.24814 14.5581 8.3421 14.7963 8.53001 15.2728L10 19L11.47 15.2728C11.6579 14.7963 11.7519 14.5581 11.8957 14.3572C12.0233 14.1792 12.1792 14.0233 12.3572 13.8957C12.5581 13.7519 12.7963 13.6579 13.2728 13.47L17 12L13.2728 10.53C12.7963 10.3421 12.5581 10.2481 12.3572 10.1043C12.1792 9.97675 12.0233 9.82084 11.8957 9.64278C11.7519 9.4419 11.6579 9.20367 11.47 8.72721L10 5Z"
    stroke="white" fill="none" stroke-width="2" stroke-linecap="round" stroke-linejoin="round"
    transform="translate(67 8) scale(0.6)" />

  <!-- border 
  <line x1="0" x2="88" y1="0" y2="0" stroke="white" stroke-width="3" stroke-linecap="butt" />
  <line x1="0" x2="88" y1="31" y2="31" stroke="white" stroke-width="3" stroke-linecap="butt" />
  <line x1="88" x2="88" y1="0" y2="31" stroke="white" stroke-width="3" stroke-linecap="butt" />
  <line x1="0" x2="0" y1="0" y2="31" stroke="white" stroke-width="3" stroke-linecap="butt" />
  -->
</svg>